<?xml version="1.0" encoding="UTF-8"?>
<svg id="_Слой_2" data-name="Слой 2" xmlns="http://www.w3.org/2000/svg" viewBox="0 0 99.37 55.33">
  <defs>
    <style>
      .cls-1 {
        fill: #e8403a;
        stroke: #e8403a;
      }

      .cls-1, .cls-2, .cls-3 {
        stroke-miterlimit: 10;
      }

      .cls-4 {
        fill: #fff;
      }

      .cls-2 {
        stroke-width: 2px;
      }

      .cls-2, .cls-3 {
        fill: #1d1d1b;
        stroke: #000;
      }
    </style>
  </defs>
  <g id="_Слой_1-2" data-name="Слой 1">
    <g>
      <g>
        <g>
          <polygon class="cls-1" points="84.87 3.15 84.87 34.95 28.67 34.95 84.87 3.15"/>
          <polygon class="cls-3" points="82.52 1.38 82.52 33.18 26.32 33.18 82.52 1.38"/>
        </g>
        <g>
          <polygon class="cls-3" points="14.5 32.3 14.5 .5 70.7 .5 14.5 32.3"/>
          <polygon class="cls-1" points="16.85 34.07 16.85 2.27 73.06 2.27 16.85 34.07"/>
        </g>
      </g>
      <g>
        <g>
          <path class="cls-2" d="M1.03,54.3l-.02-9.99h2.52s.02,9.98.02,9.98H1.03ZM3.02,50.25v-1.8s1.9,0,1.9,0c.41,0,.73-.1.95-.31.22-.2.33-.48.33-.82,0-.34-.11-.61-.33-.82-.22-.21-.54-.32-.95-.32h-1.9s0-1.87,0-1.87h2.25c.68,0,1.27.12,1.78.37s.91.6,1.21,1.04c.29.44.44.96.44,1.55,0,.59-.14,1.11-.44,1.56-.3.45-.7.8-1.23,1.04-.52.25-1.14.38-1.84.38h-2.15ZM6.43,54.28l-2.91-4.27,2.27-.56,3.56,4.82h-2.92Z"/>
          <path class="cls-2" d="M10.16,54.27l-.02-9.98h2.52s.02,9.98.02,9.98h-2.52ZM12.15,46.41v-2.13s5.32-.01,5.32-.01v2.13s-5.32.01-5.32.01ZM12.16,50.21v-2.07s4.9-.01,4.9-.01v2.07s-4.9.01-4.9.01ZM12.17,54.27v-2.13s5.4-.01,5.4-.01v2.13s-5.4.01-5.4.01Z"/>
          <path class="cls-2" d="M18.26,54.25l3.85-9.99h2.44s3.85,9.97,3.85,9.97h-2.63s-2.91-8.38-2.91-8.38h.92s-2.94,8.4-2.94,8.4h-2.58ZM20.61,52.5v-2s5.5-.01,5.5-.01v2s-5.5.01-5.5.01Z"/>
          <path class="cls-2" d="M29.33,54.23l-.02-9.98h2.52s.02,9.98.02,9.98h-2.52ZM31.04,54.22v-2.17s2.39,0,2.39,0c.56,0,1.05-.11,1.47-.33.42-.22.74-.54.96-.97.23-.43.34-.95.33-1.56,0-.6-.12-1.11-.35-1.53-.23-.42-.55-.73-.97-.95s-.9-.32-1.47-.32h-2.51s0-2.16,0-2.16h2.52c.77,0,1.48.11,2.13.35.65.24,1.21.58,1.69,1.02s.85.97,1.12,1.57.4,1.28.41,2.03c0,.75-.13,1.43-.4,2.04-.27.61-.64,1.14-1.12,1.58-.48.44-1.04.78-1.68,1.02-.64.24-1.34.36-2.1.36h-2.44Z"/>
          <path class="cls-2" d="M43.1,50.62l-3.83-6.4h2.89s2.93,5.18,2.93,5.18h-2.03s2.9-5.2,2.9-5.2h2.83s-3.83,6.41-3.83,6.41h-1.86ZM42.81,54.19v-4.6s2.51,0,2.51,0v4.6s-2.51,0-2.51,0Z"/>
          <path class="cls-2" d="M49.48,54.18l-.02-9.99h2.48s.02,9.98.02,9.98h-2.48ZM51.48,54.17v-1.87s2.08,0,2.08,0c.39,0,.71-.11.94-.33s.34-.51.34-.87c0-.23-.05-.44-.16-.63-.1-.18-.25-.32-.44-.42-.19-.1-.42-.15-.68-.15h-2.08s0-1.81,0-1.81h1.93c.33,0,.6-.09.81-.25.21-.16.32-.42.31-.77,0-.35-.11-.6-.32-.77-.21-.16-.48-.25-.81-.24h-1.93s0-1.87,0-1.87h2.53c.62,0,1.16.11,1.61.34.46.23.8.55,1.05.94.24.39.37.84.37,1.34,0,.67-.23,1.22-.68,1.66-.45.44-1.11.71-1.98.81v-.84c.96.11,1.69.42,2.2.92.51.5.76,1.13.76,1.89,0,.56-.14,1.06-.42,1.5-.28.44-.67.78-1.19,1.04-.51.25-1.12.38-1.81.38h-2.44Z"/>
          <path class="cls-2" d="M63.5,54.33c-.77,0-1.48-.13-2.13-.39-.65-.26-1.22-.63-1.7-1.09-.48-.47-.86-1.02-1.14-1.65-.28-.63-.41-1.32-.41-2.05,0-.73.13-1.41.4-2.04.27-.63.64-1.17,1.12-1.64s1.04-.84,1.69-1.1c.65-.26,1.36-.39,2.13-.39.77,0,1.48.13,2.13.38.65.26,1.21.62,1.69,1.09.48.47.85,1.02,1.12,1.64.27.63.4,1.31.41,2.04,0,.73-.13,1.41-.4,2.04-.27.63-.64,1.18-1.12,1.66s-1.04.84-1.68,1.1c-.64.26-1.34.39-2.1.39ZM63.46,52.07c.56,0,1.05-.12,1.46-.37.41-.24.73-.59.95-1.03.22-.44.34-.96.33-1.55,0-.43-.07-.83-.19-1.18-.13-.36-.31-.66-.56-.92-.24-.26-.54-.46-.87-.6-.34-.14-.72-.21-1.14-.21-.56,0-1.05.12-1.46.36-.41.24-.73.58-.95,1.02s-.34.95-.33,1.54c0,.45.07.86.19,1.22.13.36.31.67.56.93.24.26.54.45.87.59.34.14.72.2,1.14.2Z"/>
          <path class="cls-2" d="M68.72,54.13l3.85-9.99h2.44s3.85,9.97,3.85,9.97h-2.63s-2.91-8.38-2.91-8.38h.92s-2.94,8.4-2.94,8.4h-2.58ZM71.07,52.38v-2s5.5-.01,5.5-.01v2s-5.5.01-5.5.01Z"/>
          <path class="cls-2" d="M79.79,54.11l-.02-9.99h2.52s.02,9.98.02,9.98h-2.52ZM81.78,50.06v-1.8s1.9,0,1.9,0c.41,0,.73-.1.95-.3.22-.2.33-.48.33-.82,0-.34-.11-.61-.33-.82s-.54-.32-.95-.31h-1.9s0-1.87,0-1.87h2.25c.68,0,1.27.12,1.78.37s.91.6,1.21,1.04c.29.44.44.96.44,1.55s-.14,1.11-.44,1.56c-.29.45-.7.8-1.23,1.04-.53.25-1.14.38-1.84.38h-2.16ZM85.2,54.09l-2.91-4.27,2.27-.56,3.56,4.82h-2.92Z"/>
          <path class="cls-2" d="M88.93,54.08l-.02-9.99h2.52s.02,9.98.02,9.98h-2.52ZM90.63,54.08v-2.17s2.39,0,2.39,0c.56,0,1.05-.11,1.47-.33.42-.22.74-.54.96-.97s.34-.95.33-1.56c0-.6-.12-1.11-.35-1.53-.23-.42-.55-.73-.97-.95-.41-.21-.9-.32-1.47-.32h-2.51s0-2.16,0-2.16h2.52c.77,0,1.48.11,2.13.35.65.24,1.21.58,1.69,1.02.48.44.85.96,1.12,1.57s.4,1.29.41,2.03c0,.75-.13,1.43-.4,2.04-.27.61-.64,1.14-1.11,1.58-.48.44-1.04.78-1.68,1.02-.64.24-1.34.36-2.1.36h-2.44Z"/>
        </g>
        <g>
          <path class="cls-4" d="M1.03,54.29l-.02-9.99h2.52s.02,9.98.02,9.98H1.03ZM3.02,50.25v-1.8s1.9,0,1.9,0c.41,0,.73-.1.95-.31.22-.2.33-.48.33-.82,0-.34-.11-.61-.33-.82-.22-.21-.54-.32-.95-.31h-1.9s0-1.87,0-1.87h2.25c.68,0,1.27.12,1.78.37.51.25.91.6,1.21,1.04.29.44.44.96.44,1.55,0,.59-.15,1.11-.44,1.56-.29.45-.7.8-1.23,1.04-.53.25-1.14.38-1.84.38h-2.15ZM6.43,54.28l-2.91-4.27,2.26-.55,3.56,4.82h-2.91Z"/>
          <path class="cls-4" d="M10.17,54.27l-.02-9.99h2.52s.02,9.98.02,9.98h-2.52ZM12.15,46.41v-2.13s5.32-.01,5.32-.01v2.13s-5.32.01-5.32.01ZM12.16,50.21v-2.07s4.9-.01,4.9-.01v2.07s-4.9.01-4.9.01ZM12.17,54.27v-2.13s5.4-.01,5.4-.01v2.13s-5.4.01-5.4.01Z"/>
          <path class="cls-4" d="M18.26,54.25l3.85-9.99h2.44s3.85,9.97,3.85,9.97h-2.63s-2.91-8.38-2.91-8.38h.92s-2.94,8.4-2.94,8.4h-2.58ZM20.61,52.5v-2s5.5-.01,5.5-.01v2s-5.5.01-5.5.01Z"/>
          <path class="cls-4" d="M29.33,54.23l-.02-9.99h2.52s.02,9.98.02,9.98h-2.52ZM31.04,54.22v-2.17s2.39,0,2.39,0c.56,0,1.05-.11,1.47-.33.42-.22.74-.54.96-.97.22-.43.34-.95.33-1.56,0-.6-.12-1.11-.35-1.53s-.55-.73-.97-.95c-.41-.21-.9-.32-1.46-.32h-2.51s0-2.16,0-2.16h2.52c.77,0,1.48.11,2.13.35.65.24,1.21.58,1.69,1.02.48.44.85.96,1.12,1.57.27.61.4,1.29.41,2.03,0,.75-.13,1.43-.4,2.04-.27.61-.64,1.14-1.12,1.58-.48.44-1.04.78-1.68,1.02-.64.24-1.34.36-2.1.36h-2.44Z"/>
          <path class="cls-4" d="M43.1,50.62l-3.83-6.4h2.89s2.93,5.18,2.93,5.18h-2.03s2.9-5.2,2.9-5.2h2.83s-3.83,6.41-3.83,6.41h-1.86ZM42.81,54.19v-4.6s2.51,0,2.51,0v4.6s-2.51,0-2.51,0Z"/>
          <path class="cls-4" d="M49.48,54.18l-.02-9.98h2.48s.02,9.98.02,9.98h-2.48ZM51.48,54.17v-1.87s2.08,0,2.08,0c.39,0,.71-.11.94-.33.23-.22.34-.51.34-.87,0-.24-.05-.44-.16-.63-.1-.18-.25-.32-.44-.42-.19-.1-.42-.15-.68-.15h-2.08s0-1.81,0-1.81h1.93c.33,0,.6-.09.81-.25.21-.16.32-.42.32-.77,0-.35-.11-.6-.32-.77-.21-.16-.48-.25-.81-.24h-1.93s0-1.87,0-1.87h2.53c.62,0,1.16.11,1.61.34.46.23.81.55,1.05.94.25.39.37.84.37,1.34,0,.67-.22,1.22-.68,1.66-.45.44-1.11.71-1.98.81v-.85c.96.11,1.69.42,2.2.92.51.5.76,1.13.77,1.89,0,.56-.14,1.06-.42,1.5-.28.44-.68.78-1.19,1.04-.51.25-1.11.38-1.81.38h-2.44Z"/>
          <path class="cls-4" d="M63.5,54.33c-.77,0-1.48-.13-2.13-.39-.65-.26-1.21-.63-1.7-1.09-.48-.47-.86-1.02-1.14-1.65-.27-.63-.41-1.32-.41-2.05,0-.73.13-1.41.4-2.04s.64-1.17,1.12-1.64c.48-.47,1.04-.83,1.69-1.1.65-.26,1.36-.39,2.13-.39.77,0,1.48.13,2.13.38.65.26,1.21.62,1.69,1.09.48.47.85,1.02,1.12,1.64.27.63.4,1.31.41,2.04s-.13,1.41-.4,2.04c-.27.63-.64,1.18-1.11,1.66-.48.48-1.04.84-1.68,1.1-.64.26-1.34.39-2.1.39ZM63.46,52.07c.56,0,1.05-.12,1.46-.37.41-.24.73-.59.96-1.03.22-.44.34-.96.33-1.55,0-.43-.07-.83-.19-1.18s-.31-.66-.56-.92c-.24-.26-.54-.46-.87-.6-.34-.14-.72-.21-1.14-.21-.56,0-1.05.12-1.46.36-.41.24-.73.58-.96,1.02s-.33.95-.33,1.54c0,.45.07.86.19,1.22.13.36.31.67.56.93.24.26.54.45.88.59.34.14.72.2,1.14.2Z"/>
          <path class="cls-4" d="M68.72,54.13l3.85-9.99h2.44s3.85,9.97,3.85,9.97h-2.63s-2.91-8.38-2.91-8.38h.92s-2.94,8.4-2.94,8.4h-2.58ZM71.07,52.38v-2s5.5-.01,5.5-.01v2s-5.5.01-5.5.01Z"/>
          <path class="cls-4" d="M79.79,54.11l-.02-9.98h2.52s.02,9.98.02,9.98h-2.52ZM81.78,50.06v-1.8s1.9,0,1.9,0c.41,0,.73-.1.95-.3.22-.2.33-.48.33-.82,0-.34-.11-.61-.33-.82-.22-.21-.54-.32-.95-.31h-1.9s0-1.87,0-1.87h2.25c.68,0,1.27.12,1.78.37.51.25.91.6,1.21,1.04s.44.96.44,1.55c0,.59-.15,1.11-.44,1.56-.3.45-.7.79-1.23,1.04-.53.25-1.14.38-1.84.38h-2.15ZM85.2,54.09l-2.91-4.27,2.27-.55,3.56,4.82h-2.92Z"/>
          <path class="cls-4" d="M88.93,54.08l-.02-9.98h2.52s.02,9.98.02,9.98h-2.52ZM90.63,54.08v-2.17s2.39,0,2.39,0c.56,0,1.05-.11,1.47-.33.42-.22.74-.54.96-.97.22-.43.34-.95.33-1.56,0-.6-.12-1.11-.35-1.53-.23-.42-.55-.73-.97-.95-.41-.21-.9-.32-1.47-.32h-2.51s0-2.16,0-2.16h2.52c.77,0,1.48.11,2.13.35.65.24,1.21.58,1.69,1.02.48.44.85.96,1.12,1.57.27.61.4,1.29.41,2.03,0,.75-.13,1.43-.4,2.04-.27.61-.64,1.14-1.12,1.58-.48.44-1.04.78-1.68,1.03s-1.34.36-2.1.36h-2.44Z"/>
        </g>
      </g>
    </g>
  </g>
</svg>