<?xml version="1.0" encoding="UTF-8"?>
<svg id="_Слой_2" data-name="Слой 2" xmlns="http://www.w3.org/2000/svg" viewBox="0 0 90.19 57.25">
  <defs>
    <style>
      .cls-1 {
        fill: #e8403a;
        stroke: #e8403a;
      }

      .cls-1, .cls-2, .cls-3 {
        stroke-miterlimit: 10;
      }

      .cls-4 {
        fill: #fff;
      }

      .cls-2 {
        stroke-width: 2px;
      }

      .cls-2, .cls-3 {
        fill: #1d1d1b;
        stroke: #000;
      }
    </style>
  </defs>
  <g id="_Слой_1-2" data-name="Слой 1">
    <g>
      <g>
        <g>
          <polygon class="cls-1" points="86.4 17.56 86.4 49.36 30.19 49.36 86.4 17.56"/>
          <polygon class="cls-3" points="84.04 15.79 84.04 47.59 27.84 47.59 84.04 15.79"/>
        </g>
        <g>
          <polygon class="cls-3" points="4.2 38.29 4.2 6.49 60.4 6.49 4.2 38.29"/>
          <polygon class="cls-1" points="6.56 40.06 6.56 8.26 62.76 8.26 6.56 40.06"/>
        </g>
      </g>
      <g>
        <g>
          <path class="cls-2" d="M6.29,55.89l-4.93-8.69,2.19-1.24,4.93,8.69-2.19,1.24ZM6.04,51.39l-.89-1.57,1.65-.94c.36-.2.58-.45.68-.73.09-.28.05-.58-.12-.88-.17-.29-.4-.48-.69-.55-.3-.08-.62-.01-.98.19l-1.65.94-.92-1.63,1.96-1.11c.59-.33,1.17-.52,1.74-.55s1.09.07,1.56.31c.47.24.85.62,1.14,1.13.29.51.42,1.04.38,1.57-.04.53-.22,1.04-.56,1.51-.33.48-.81.89-1.42,1.24l-1.87,1.06ZM10.99,53.22l-4.63-2.29,1.7-1.6,5.47,2.45-2.54,1.44Z"/>
          <path class="cls-2" d="M14.24,51.38l-4.93-8.69,2.19-1.24,4.93,8.69-2.19,1.24ZM12.1,43.56l-1.05-1.85,4.63-2.63,1.05,1.85-4.63,2.63ZM13.98,46.87l-1.02-1.8,4.26-2.42,1.02,1.8-4.26,2.42ZM15.98,50.39l-1.05-1.85,4.7-2.67,1.05,1.85-4.7,2.67Z"/>
          <path class="cls-2" d="M21.28,47.39l-1.56-10.6,2.12-1.2,8.26,6.8-2.29,1.3-6.65-5.88.8-.45,1.57,8.76-2.24,1.27ZM22.47,44.71l-.99-1.74,4.79-2.72.99,1.74-4.79,2.72Z"/>
          <path class="cls-2" d="M30.91,41.92l-4.93-8.69,2.19-1.24,4.93,8.69-2.19,1.24ZM32.39,41.08l-1.07-1.89,2.08-1.18c.49-.28.86-.61,1.12-1.01.26-.39.38-.83.36-1.32-.01-.48-.17-.99-.47-1.52-.3-.52-.65-.91-1.05-1.16-.41-.25-.84-.37-1.31-.35s-.95.16-1.43.44l-2.18,1.24-1.07-1.89,2.19-1.24c.67-.38,1.35-.62,2.03-.74.68-.11,1.34-.09,1.97.05s1.22.42,1.75.82.98.92,1.35,1.57c.37.65.59,1.31.66,1.97.07.66,0,1.3-.19,1.92-.2.62-.52,1.19-.96,1.72-.44.53-.99.98-1.65,1.35l-2.12,1.2Z"/>
          <path class="cls-2" d="M41.13,32.02l-6.48-3.69,2.51-1.42,5.1,3.08-1.76,1-.03-5.96,2.46-1.4-.18,7.47-1.62.92ZM42.63,35.28l-2.27-4.01,2.19-1.24,2.27,4.01-2.19,1.24Z"/>
          <path class="cls-2" d="M48.44,31.98l-4.93-8.69,2.16-1.22,4.93,8.69-2.16,1.22ZM50.18,31l-.92-1.63,1.81-1.03c.34-.19.56-.44.65-.75s.05-.61-.13-.92c-.11-.2-.26-.36-.44-.47-.18-.11-.38-.16-.59-.15-.22,0-.44.08-.67.21l-1.81,1.03-.9-1.58,1.68-.95c.29-.16.48-.37.58-.61.1-.25.07-.52-.1-.82-.17-.3-.39-.47-.65-.51-.26-.04-.54.02-.83.19l-1.68.95-.92-1.63,2.2-1.25c.54-.31,1.07-.47,1.58-.49.51-.02.97.08,1.38.3.41.22.73.55.98.98.33.58.4,1.17.22,1.78-.18.6-.62,1.16-1.32,1.68l-.42-.73c.89-.37,1.68-.47,2.36-.28.69.19,1.22.61,1.6,1.27.28.49.4.99.37,1.51-.03.52-.2,1.01-.52,1.49-.32.47-.78.88-1.39,1.22l-2.12,1.2Z"/>
          <path class="cls-2" d="M60.72,25.23c-.67.38-1.35.61-2.05.71-.69.09-1.37.05-2.02-.12-.65-.17-1.25-.46-1.8-.88-.55-.42-1.01-.94-1.37-1.58-.36-.64-.58-1.29-.65-1.97-.08-.67-.02-1.34.16-1.98s.5-1.24.93-1.78c.44-.54.99-1.01,1.66-1.39.67-.38,1.35-.62,2.04-.71.69-.09,1.36-.06,2.01.12.65.17,1.24.47,1.79.88.54.42,1,.94,1.36,1.58.36.64.58,1.29.66,1.97.08.68.03,1.34-.16,1.99s-.49,1.24-.92,1.79c-.43.54-.98,1-1.64,1.37ZM59.58,23.28c.49-.28.86-.62,1.09-1.04.24-.42.35-.87.33-1.37-.02-.5-.18-1-.47-1.51-.21-.38-.46-.69-.75-.94-.29-.25-.6-.42-.94-.53-.34-.1-.69-.13-1.05-.09-.36.04-.73.17-1.1.38-.49.28-.86.62-1.1,1.03-.24.41-.35.87-.33,1.36s.18,1,.46,1.5c.22.39.48.71.77.97.29.25.6.43.94.53.34.1.69.13,1.05.08.36-.05.73-.18,1.09-.39Z"/>
          <path class="cls-2" d="M65.17,22.49l-1.56-10.6,2.12-1.2,8.26,6.8-2.29,1.3-6.65-5.88.8-.45,1.57,8.76-2.24,1.27ZM66.36,19.81l-.99-1.74,4.79-2.72.99,1.74-4.79,2.72Z"/>
          <path class="cls-2" d="M74.8,17.03l-4.93-8.69,2.19-1.24,4.93,8.69-2.19,1.24ZM74.55,12.53l-.89-1.57,1.65-.94c.36-.2.58-.45.68-.73.09-.28.05-.58-.12-.88-.17-.29-.4-.48-.69-.55s-.62-.01-.98.19l-1.65.94-.92-1.63,1.96-1.11c.59-.33,1.17-.52,1.74-.55s1.09.07,1.56.31c.47.24.85.62,1.14,1.13s.42,1.04.38,1.57c-.04.53-.22,1.04-.56,1.51-.33.48-.81.89-1.42,1.24l-1.87,1.06ZM79.51,14.36l-4.64-2.29,1.7-1.6,5.47,2.45-2.54,1.44Z"/>
          <path class="cls-2" d="M82.75,12.52l-4.93-8.69,2.19-1.24,4.93,8.69-2.19,1.24ZM84.23,11.68l-1.07-1.89,2.08-1.18c.49-.28.86-.61,1.12-1.01.26-.39.38-.83.36-1.31s-.17-.99-.47-1.52c-.3-.52-.65-.91-1.06-1.16-.4-.25-.84-.37-1.31-.35-.47.02-.94.16-1.43.44l-2.18,1.24-1.07-1.89,2.19-1.24c.67-.38,1.34-.63,2.03-.74.68-.11,1.34-.09,1.97.05.63.15,1.22.42,1.75.82s.98.92,1.35,1.57c.37.65.59,1.31.66,1.97.07.66,0,1.3-.19,1.92-.2.62-.52,1.19-.96,1.72-.44.53-.99.98-1.65,1.35l-2.12,1.2Z"/>
        </g>
        <g>
          <path class="cls-4" d="M6.29,55.89l-4.93-8.69,2.19-1.24,4.93,8.68-2.19,1.24ZM6.03,51.39l-.89-1.57,1.65-.94c.36-.2.58-.45.68-.73.09-.28.05-.58-.12-.88-.17-.29-.4-.48-.69-.55-.3-.07-.62-.01-.98.19l-1.65.94-.92-1.63,1.96-1.11c.59-.33,1.17-.52,1.74-.55.57-.03,1.09.07,1.56.31.47.24.85.62,1.14,1.13.29.51.42,1.04.38,1.57-.04.53-.22,1.04-.56,1.51-.33.48-.81.89-1.42,1.23l-1.87,1.06ZM10.99,53.22l-4.63-2.29,1.7-1.6,5.47,2.45-2.54,1.44Z"/>
          <path class="cls-4" d="M14.24,51.38l-4.93-8.69,2.19-1.24,4.93,8.69-2.19,1.24ZM12.1,43.56l-1.05-1.85,4.63-2.63,1.05,1.85-4.63,2.63ZM13.98,46.87l-1.02-1.8,4.26-2.42,1.02,1.8-4.26,2.42ZM15.98,50.39l-1.05-1.85,4.7-2.67,1.05,1.85-4.7,2.67Z"/>
          <path class="cls-4" d="M21.28,47.39l-1.56-10.6,2.12-1.2,8.26,6.8-2.29,1.3-6.65-5.88.8-.45,1.57,8.76-2.24,1.27ZM22.47,44.71l-.99-1.74,4.79-2.72.99,1.74-4.79,2.72Z"/>
          <path class="cls-4" d="M30.91,41.92l-4.93-8.69,2.19-1.24,4.93,8.68-2.19,1.24ZM32.39,41.08l-1.07-1.89,2.08-1.18c.49-.28.86-.61,1.12-1.01.26-.39.38-.83.36-1.32-.01-.48-.17-.99-.47-1.52-.3-.52-.65-.91-1.05-1.16s-.84-.37-1.31-.35c-.47.02-.94.16-1.43.44l-2.18,1.24-1.07-1.89,2.19-1.24c.67-.38,1.34-.63,2.03-.74.68-.11,1.34-.09,1.97.05.63.15,1.22.42,1.75.82.53.4.98.92,1.35,1.57.37.65.59,1.31.66,1.97.07.66,0,1.3-.2,1.92-.2.62-.52,1.19-.96,1.72-.44.53-.99.98-1.65,1.35l-2.12,1.2Z"/>
          <path class="cls-4" d="M41.13,32.02l-6.48-3.69,2.51-1.42,5.1,3.08-1.76,1-.03-5.96,2.46-1.4-.18,7.47-1.62.92ZM42.63,35.28l-2.27-4.01,2.19-1.24,2.27,4.01-2.19,1.24Z"/>
          <path class="cls-4" d="M48.44,31.98l-4.93-8.69,2.16-1.22,4.93,8.69-2.16,1.22ZM50.18,31l-.92-1.63,1.81-1.03c.34-.19.56-.44.65-.75.09-.31.05-.61-.13-.92-.12-.21-.26-.36-.44-.47-.18-.11-.38-.16-.59-.15-.22,0-.44.08-.67.21l-1.81,1.03-.9-1.58,1.68-.95c.29-.16.48-.37.58-.61.1-.25.07-.52-.1-.82-.17-.3-.39-.47-.65-.51-.26-.04-.54.02-.83.19l-1.68.95-.92-1.63,2.2-1.25c.54-.31,1.07-.47,1.58-.49.51-.02.97.08,1.38.3.41.22.73.55.98.98.33.58.4,1.17.22,1.78-.18.6-.62,1.16-1.32,1.68l-.42-.74c.89-.37,1.68-.47,2.37-.28.69.19,1.22.61,1.6,1.27.28.49.4.99.37,1.51-.03.52-.2,1.01-.52,1.49-.32.47-.78.88-1.39,1.22l-2.12,1.2Z"/>
          <path class="cls-4" d="M60.72,25.23c-.67.38-1.35.61-2.04.71-.69.09-1.37.05-2.02-.12-.65-.17-1.25-.46-1.8-.88-.55-.42-1-.94-1.37-1.58-.36-.64-.58-1.29-.65-1.97s-.02-1.34.17-1.98c.18-.64.5-1.24.93-1.78.44-.54.99-1.01,1.66-1.39.67-.38,1.35-.62,2.04-.71.69-.09,1.36-.06,2.01.12.65.17,1.24.47,1.79.88.54.42,1,.94,1.36,1.58s.58,1.29.66,1.97c.08.68.03,1.34-.16,1.99-.18.65-.49,1.24-.92,1.79-.43.54-.98,1-1.64,1.38ZM59.58,23.28c.49-.28.85-.62,1.09-1.04.24-.42.35-.87.33-1.37-.02-.5-.18-1-.47-1.51-.21-.38-.46-.69-.75-.94s-.6-.42-.94-.53c-.34-.1-.69-.13-1.05-.09-.36.04-.73.17-1.1.38-.49.28-.86.62-1.1,1.04-.24.41-.35.87-.33,1.36s.18,1,.46,1.5c.22.39.48.71.77.97.29.25.6.43.94.53.34.1.69.13,1.05.08.36-.05.73-.18,1.09-.38Z"/>
          <path class="cls-4" d="M65.17,22.49l-1.56-10.6,2.12-1.2,8.26,6.8-2.29,1.3-6.65-5.88.8-.45,1.57,8.76-2.24,1.27ZM66.36,19.81l-.99-1.74,4.79-2.72.99,1.74-4.79,2.72Z"/>
          <path class="cls-4" d="M74.8,17.03l-4.93-8.68,2.19-1.24,4.93,8.69-2.19,1.24ZM74.55,12.53l-.89-1.57,1.65-.94c.36-.2.59-.45.68-.73.09-.28.05-.58-.12-.88-.17-.29-.4-.48-.69-.55-.3-.07-.62-.01-.98.19l-1.65.94-.92-1.63,1.96-1.11c.59-.33,1.17-.52,1.74-.55.57-.03,1.09.07,1.56.31s.85.62,1.14,1.13c.29.51.42,1.04.38,1.57-.04.53-.22,1.04-.56,1.51-.33.48-.81.89-1.42,1.24l-1.87,1.06ZM79.51,14.36l-4.64-2.29,1.7-1.6,5.47,2.45-2.54,1.44Z"/>
          <path class="cls-4" d="M82.75,12.52l-4.93-8.69,2.19-1.24,4.93,8.69-2.19,1.24ZM84.23,11.68l-1.07-1.89,2.08-1.18c.49-.28.86-.61,1.12-1.01.26-.39.38-.83.36-1.32-.02-.48-.17-.99-.47-1.52-.3-.52-.65-.91-1.05-1.16-.41-.25-.84-.37-1.31-.35-.47.02-.94.16-1.43.44l-2.18,1.24-1.07-1.89,2.19-1.24c.67-.38,1.34-.63,2.03-.74.68-.11,1.34-.09,1.97.05.63.15,1.22.42,1.75.82.53.4.98.92,1.35,1.57.37.65.59,1.31.66,1.97.07.66,0,1.3-.2,1.92-.2.62-.52,1.19-.96,1.72s-.99.98-1.65,1.35l-2.12,1.2Z"/>
        </g>
      </g>
    </g>
  </g>
</svg>