<?xml version="1.0" encoding="UTF-8"?>
<svg id="_Слой_2" data-name="Слой 2" xmlns="http://www.w3.org/2000/svg" viewBox="0 0 136.7 14.41">
  <defs>
    <style>
      .cls-1 {
        fill: #e8403a;
      }

      .cls-2 {
        fill: #1d1d1b;
      }
    </style>
  </defs>
  <g id="_Слой_1-2" data-name="Слой 1">
    <g>
      <path class="cls-2" d="M0,14.14V.27h3.89v13.86H0ZM3.15,8.61v-2.69h2.36c.53,0,.94-.13,1.22-.39.28-.26.42-.6.42-1.03s-.14-.77-.42-1.03c-.28-.26-.69-.39-1.22-.39h-2.36V.27h2.98c.96,0,1.8.18,2.53.53.73.35,1.3.84,1.71,1.46.42.62.62,1.35.62,2.18s-.21,1.56-.63,2.18-1.01,1.11-1.76,1.46c-.75.35-1.64.53-2.67.53h-2.78ZM7.48,14.14l-3.78-5.92,3.5-.76,4.69,6.68h-4.42Z"/>
      <path class="cls-2" d="M12.87,14.14V.27h3.89v13.86h-3.89ZM16.02,3.5V.27h7.32v3.23h-7.32ZM16.02,8.64v-3.15h6.72v3.15h-6.72ZM16.02,14.14v-3.23h7.44v3.23h-7.44Z"/>
      <path class="cls-2" d="M24.28,14.14L29.56.27h3.97l5.22,13.86h-4.05l-3.87-11.78h1.4l-3.97,11.78h-3.97ZM27.71,11.8v-3.04h7.75v3.04h-7.75Z"/>
      <path class="cls-2" d="M39.85,14.14V.27h3.89v13.86h-3.89ZM42.46,14.14v-3.31h3.23c.73,0,1.36-.13,1.89-.4s.94-.67,1.23-1.22c.29-.55.43-1.22.43-2.02s-.15-1.47-.44-2.01c-.29-.53-.7-.93-1.23-1.2-.53-.27-1.15-.4-1.88-.4h-3.43V.27h3.43c1.09,0,2.09.16,3.01.49.92.32,1.71.79,2.38,1.4.67.61,1.2,1.34,1.57,2.19s.55,1.8.55,2.85-.18,2-.55,2.85c-.37.85-.89,1.58-1.57,2.19-.67.61-1.47,1.08-2.38,1.4-.91.32-1.9.49-2.98.49h-3.27Z"/>
      <path class="cls-2" d="M59.01,9.37L53.74.27h4.48l3.99,7.42h-3.35l3.99-7.42h4.38l-5.32,9.09h-2.9ZM58.56,14.14v-6.19h3.89v6.19h-3.89Z"/>
      <path class="cls-1" d="M67.99,14.14V.27h3.82v13.86h-3.82ZM71.14,14.14v-2.8h2.55c.49,0,.89-.13,1.19-.4s.45-.63.45-1.1c0-.31-.07-.58-.21-.81-.14-.23-.32-.4-.56-.52s-.53-.18-.87-.18h-2.55v-2.69h2.38c.42,0,.76-.1,1.03-.31s.41-.53.41-.97-.14-.77-.41-.97c-.27-.21-.62-.31-1.03-.31h-2.38V.27h3.47c.84,0,1.58.16,2.21.48.63.32,1.12.75,1.47,1.3s.53,1.18.53,1.9c0,.99-.35,1.79-1.05,2.41s-1.73.98-3.08,1.07l-.04-1.34c1.47.09,2.59.49,3.37,1.21.78.71,1.17,1.63,1.17,2.75,0,.81-.2,1.52-.6,2.13-.4.62-.96,1.1-1.68,1.44-.72.34-1.56.52-2.52.52h-3.23Z"/>
      <path class="cls-1" d="M87.67,14.41c-1.09,0-2.09-.18-3.01-.54s-1.71-.87-2.39-1.52c-.68-.65-1.21-1.42-1.59-2.3-.38-.88-.56-1.84-.56-2.86s.18-1.99.55-2.86.89-1.63,1.57-2.28c.67-.65,1.47-1.15,2.38-1.51s1.92-.54,3.01-.54,2.09.18,3.01.54,1.71.86,2.38,1.51,1.2,1.41,1.57,2.29.55,1.83.55,2.87-.18,1.98-.55,2.85c-.37.88-.89,1.64-1.57,2.3-.67.66-1.47,1.16-2.38,1.52-.91.36-1.9.54-2.98.54ZM87.63,10.98c.73,0,1.36-.16,1.89-.47s.94-.75,1.23-1.32c.29-.57.43-1.24.43-2.01,0-.57-.08-1.09-.24-1.55-.16-.46-.4-.86-.71-1.19s-.68-.58-1.12-.76c-.44-.18-.92-.26-1.47-.26-.73,0-1.36.15-1.89.46-.53.31-.94.74-1.23,1.3-.29.56-.43,1.23-.43,2,0,.58.08,1.11.24,1.58s.4.87.71,1.2.68.58,1.12.76.92.26,1.47.26Z"/>
      <path class="cls-1" d="M94.9,14.14L100.17.27h3.97l5.22,13.86h-4.05l-3.87-11.78h1.4l-3.97,11.78h-3.97ZM98.32,11.8v-3.04h7.75v3.04h-7.75Z"/>
      <path class="cls-1" d="M110.47,14.14V.27h3.89v13.86h-3.89ZM113.63,8.61v-2.69h2.36c.53,0,.94-.13,1.22-.39.28-.26.42-.6.42-1.03s-.14-.77-.42-1.03c-.28-.26-.69-.39-1.22-.39h-2.36V.27h2.98c.96,0,1.8.18,2.53.53.73.35,1.3.84,1.71,1.46.42.62.62,1.35.62,2.18s-.21,1.56-.63,2.18-1.01,1.11-1.76,1.46c-.75.35-1.64.53-2.67.53h-2.78ZM117.95,14.14l-3.78-5.92,3.5-.76,4.69,6.68h-4.42Z"/>
      <path class="cls-1" d="M123.34,14.14V.27h3.89v13.86h-3.89ZM125.95,14.14v-3.31h3.23c.73,0,1.36-.13,1.89-.4s.94-.67,1.23-1.22c.29-.55.43-1.22.43-2.02s-.15-1.47-.44-2.01c-.29-.53-.7-.93-1.23-1.2-.53-.27-1.15-.4-1.88-.4h-3.43V.27h3.43c1.09,0,2.09.16,3.01.49.92.32,1.71.79,2.38,1.4.67.61,1.2,1.34,1.57,2.19s.55,1.8.55,2.85-.18,2-.55,2.85c-.37.85-.89,1.58-1.57,2.19-.67.61-1.47,1.08-2.38,1.4-.91.32-1.9.49-2.98.49h-3.27Z"/>
    </g>
  </g>
</svg>