<?xml version="1.0" encoding="UTF-8"?>
<svg id="_Слой_2" data-name="Слой 2" xmlns="http://www.w3.org/2000/svg" viewBox="0 0 304.01 35.45">
  <defs>
    <style>
      .cls-1, .cls-2 {
        fill: #1d1d1b;
      }

      .cls-3 {
        fill: #e8403a;
        stroke: #e8403a;
      }

      .cls-3, .cls-2 {
        stroke-miterlimit: 10;
      }

      .cls-2 {
        stroke: #000;
      }
    </style>
  </defs>
  <g id="_Слой_1-2" data-name="Слой 1">
    <g>
      <g>
        <g>
          <polygon class="cls-3" points="70.88 3.15 70.88 34.95 14.67 34.95 70.88 3.15"/>
          <polygon class="cls-2" points="68.52 1.38 68.52 33.18 12.32 33.18 68.52 1.38"/>
        </g>
        <g>
          <polygon class="cls-2" points=".5 32.3 .5 .5 56.7 .5 .5 32.3"/>
          <polygon class="cls-3" points="2.86 34.07 2.86 2.27 59.06 2.27 2.86 34.07"/>
        </g>
      </g>
      <g>
        <path class="cls-1" d="M80.78,29.52l-.05-22.9h5.78s.06,22.88.06,22.88l-5.78.02ZM85.34,20.24v-4.13s4.35-.01,4.35-.01c.95,0,1.67-.24,2.18-.7.5-.47.76-1.1.75-1.89,0-.77-.26-1.4-.76-1.89-.51-.48-1.23-.72-2.18-.72h-4.36s0-4.28,0-4.28h5.17c1.55-.02,2.91.27,4.09.85,1.18.58,2.1,1.37,2.77,2.38.67,1.01,1.01,2.19,1.01,3.55,0,1.36-.33,2.55-1.01,3.57-.68,1.02-1.61,1.82-2.82,2.4-1.21.57-2.62.86-4.23.87h-4.94ZM93.18,29.49l-6.67-9.8,5.19-1.27,8.17,11.06-6.68.02Z"/>
        <path class="cls-1" d="M101.73,29.47l-.05-22.9h5.78s.05,22.88.05,22.88h-5.78ZM106.28,11.44v-4.88s12.2-.03,12.2-.03v4.88s-12.2.03-12.2.03ZM106.3,20.16v-4.75s11.23-.03,11.23-.03v4.75s-11.23.03-11.23.03ZM106.32,29.46v-4.88s12.39-.03,12.39-.03v4.88s-12.39.03-12.39.03Z"/>
        <path class="cls-1" d="M120.31,29.42l8.83-22.92h5.59s8.84,22.86,8.84,22.86l-6.04.02-6.67-19.23h2.1s-6.74,19.26-6.74,19.26h-5.91ZM125.69,25.41v-4.59s12.62-.03,12.62-.03v4.59s-12.62.03-12.62.03Z"/>
        <path class="cls-1" d="M145.69,29.36l-.05-22.9h5.78s.06,22.88.06,22.88h-5.78ZM149.6,29.35v-4.97s5.48-.01,5.48-.01c1.29,0,2.41-.25,3.37-.75.96-.5,1.69-1.24,2.21-2.22.51-.98.77-2.17.77-3.57,0-1.38-.27-2.54-.8-3.5s-1.27-1.68-2.22-2.18c-.95-.49-2.07-.74-3.36-.73h-5.75s-.01-4.96-.01-4.96h5.78c1.76-.02,3.39.25,4.88.8,1.49.54,2.78,1.32,3.88,2.33,1.1,1.01,1.96,2.21,2.58,3.61.62,1.4.93,2.95.93,4.65,0,1.72-.3,3.28-.91,4.69-.61,1.4-1.46,2.61-2.56,3.62-1.1,1.01-2.38,1.8-3.86,2.35-1.47.55-3.08.83-4.83.83h-5.59Z"/>
        <path class="cls-1" d="M177.26,21.09l-8.79-14.67,6.62-.02,6.71,11.9h-4.65s6.66-11.92,6.66-11.92l6.49-.02-8.78,14.72h-4.26ZM176.6,29.29l-.02-10.56h5.78s.02,10.55.02,10.55h-5.78Z"/>
        <path class="cls-1" d="M191.9,29.25l-.05-22.9h5.68s.05,22.88.05,22.88h-5.68ZM196.49,29.24v-4.29s4.77-.01,4.77-.01c.9,0,1.62-.26,2.15-.76.53-.51.79-1.17.79-1.99,0-.54-.12-1.02-.36-1.44-.24-.42-.58-.74-1.02-.97-.44-.22-.96-.34-1.57-.33h-4.78s0-4.16,0-4.16h4.42c.75-.01,1.37-.2,1.86-.58.49-.38.72-.97.72-1.76,0-.8-.25-1.38-.73-1.76-.49-.38-1.1-.56-1.86-.56h-4.42s-.01-4.28-.01-4.28l5.81-.02c1.42,0,2.66.26,3.7.8,1.05.54,1.85,1.26,2.41,2.16.56.9.84,1.93.85,3.07,0,1.53-.51,2.79-1.56,3.8-1.04,1-2.55,1.63-4.53,1.87v-1.94c2.19.25,3.87.95,5.04,2.1,1.17,1.15,1.75,2.59,1.75,4.34,0,1.29-.32,2.44-.96,3.44-.64,1-1.55,1.79-2.72,2.38-1.17.58-2.55.88-4.15.88h-5.59Z"/>
        <path class="cls-1" d="M224.04,29.6c-1.77,0-3.39-.3-4.88-.89-1.49-.6-2.78-1.44-3.9-2.51-1.11-1.07-1.98-2.34-2.61-3.79-.63-1.45-.94-3.02-.95-4.7,0-1.68.3-3.24.91-4.67s1.46-2.69,2.56-3.77c1.09-1.08,2.38-1.91,3.87-2.51,1.48-.59,3.11-.89,4.88-.9,1.76,0,3.39.29,4.88.88,1.49.59,2.78,1.42,3.88,2.49,1.1,1.07,1.96,2.33,2.58,3.77.62,1.44.93,3,.93,4.68s-.3,3.24-.91,4.68c-.61,1.45-1.46,2.71-2.56,3.8-1.1,1.09-2.38,1.93-3.85,2.53-1.47.59-3.08.89-4.83.9ZM223.96,24.43c1.29,0,2.41-.29,3.36-.85.95-.56,1.68-1.35,2.19-2.36.51-1.02.77-2.2.77-3.56,0-.99-.15-1.89-.44-2.71s-.72-1.52-1.28-2.11c-.56-.59-1.23-1.05-2-1.37-.78-.32-1.65-.48-2.62-.48-1.29,0-2.41.28-3.36.83-.95.55-1.68,1.33-2.19,2.35s-.77,2.19-.77,3.52c0,1.03.15,1.96.44,2.79.3.83.72,1.54,1.28,2.13.56.59,1.23,1.04,2.01,1.35.78.31,1.65.47,2.62.46Z"/>
        <path class="cls-1" d="M236.02,29.15l8.83-22.92h5.59s8.84,22.86,8.84,22.86h-6.04s-6.67-19.22-6.67-19.22h2.1s-6.74,19.26-6.74,19.26h-5.91ZM241.41,25.13v-4.59s12.62-.03,12.62-.03v4.59s-12.62.03-12.62.03Z"/>
        <path class="cls-1" d="M261.41,29.08l-.06-22.9h5.78s.05,22.88.05,22.88h-5.78ZM265.97,19.81v-4.13s4.35-.01,4.35-.01c.95,0,1.67-.23,2.18-.7.51-.46.76-1.09.76-1.89,0-.78-.26-1.4-.76-1.89-.51-.48-1.23-.72-2.18-.72h-4.36s0-4.29,0-4.29h5.17c1.55-.02,2.91.27,4.09.85,1.17.58,2.1,1.37,2.77,2.38s1.01,2.19,1.01,3.55c0,1.35-.33,2.55-1.01,3.57-.68,1.02-1.62,1.82-2.82,2.4-1.21.57-2.62.86-4.23.87h-4.94ZM273.81,29.06l-6.68-9.8,5.2-1.27,8.17,11.06-6.69.02Z"/>
        <path class="cls-1" d="M282.37,29.04l-.05-22.9h5.78s.05,22.88.05,22.88h-5.78ZM286.27,29.03v-4.97s5.48-.01,5.48-.01c1.29,0,2.42-.25,3.37-.75.96-.5,1.69-1.24,2.21-2.22.51-.98.77-2.17.76-3.57,0-1.38-.27-2.55-.8-3.5-.53-.96-1.27-1.68-2.22-2.18-.95-.49-2.07-.74-3.36-.73h-5.75s-.01-4.96-.01-4.96h5.78c1.77-.02,3.39.25,4.88.8,1.49.54,2.78,1.32,3.88,2.33,1.1,1.01,1.96,2.21,2.58,3.61.62,1.4.93,2.95.93,4.65,0,1.72-.3,3.28-.91,4.69-.61,1.4-1.46,2.61-2.56,3.62-1.09,1.02-2.38,1.8-3.85,2.35s-3.08.83-4.83.84h-5.59Z"/>
      </g>
    </g>
  </g>
</svg>